<svg width="540" height="73" viewBox="0 0 540 73" fill="none" xmlns="http://www.w3.org/2000/svg">
<g filter="url(#filter0_d_4429_2)">
<path fill-rule="evenodd" clip-rule="evenodd" d="M26.3953 57.8237L4.37158 35.7999L26.3953 13.7762L35.2566 22.5785L21.5958 35.7999L35.2566 49.0214L26.3953 57.8237ZM32.4 49.04L26.4 55L7.20001 35.7999L26.4 16.6L32.3999 22.5599L18.72 35.7999L32.4 49.04ZM62.7063 62.0943L62.6972 62.0906C59.185 60.6512 56.0884 58.5469 53.4192 55.7915L53.4116 55.7838C50.7496 53.006 48.6932 49.6323 47.2224 45.7007L47.2208 45.6963C45.7363 41.6996 45.0156 37.1902 45.0156 32.1999C45.0156 25.6622 46.2346 19.9527 48.7654 15.1492C51.2729 10.3632 54.7395 6.6495 59.1657 4.07368C63.577 1.47982 68.5308 0.199951 73.9756 0.199951C81.3657 0.199951 87.4678 1.92305 92.0593 5.5936C96.6187 9.19062 99.6422 14.2153 101.197 20.521L101.719 22.6344L88.0343 24.8039L87.511 23.17C86.521 20.0794 84.936 17.7023 82.7901 15.9486L82.7801 15.9405C80.7249 14.2388 78.0436 13.3199 74.5756 13.3199H74.5618L74.548 13.3198C70.9872 13.2706 68.2017 14.0439 66.0569 15.496C63.8549 16.987 62.1579 19.0998 60.9853 21.9207C59.8249 24.7766 59.2156 28.1883 59.2156 32.1999C59.2156 36.2143 59.8257 39.6114 60.9848 42.438C62.1273 45.1979 63.807 47.2865 66.0132 48.7813C68.2068 50.2499 71.0296 51.0702 74.5984 51.1201C77.2488 51.1438 79.474 50.6701 81.33 49.7667C83.1666 48.8464 84.6821 47.4667 85.8837 45.5735C86.7745 44.1503 87.4773 42.4219 87.9649 40.36H78.2156V28.8H102.381L102.6 30.5519C102.665 31.072 102.707 31.7724 102.735 32.6155C102.761 33.4248 102.776 33.9592 102.776 34.16C102.776 39.8692 101.641 45.0271 99.3188 49.5857C97.0175 54.1298 93.6913 57.7189 89.3646 60.3149C84.9981 62.9349 79.8404 64.2 73.9756 64.2C70.0035 64.2 66.2443 63.5037 62.7155 62.0979L62.7063 62.0943ZM97.5356 48.68C99.6956 44.44 100.776 39.5999 100.776 34.16C100.776 34 100.762 33.5066 100.736 32.68C100.709 31.8533 100.669 31.2266 100.616 30.8H80.2156V38.3599H90.3756C90.2754 39.0505 90.1554 39.7171 90.0156 40.36C89.4861 42.7955 88.6727 44.8888 87.5756 46.64C86.189 48.8266 84.4023 50.4666 82.2156 51.56C80.029 52.6266 77.4823 53.1466 74.5756 53.12C70.709 53.0666 67.4823 52.1733 64.8956 50.44C62.3356 48.7066 60.4156 46.2933 59.1356 43.2C57.8556 40.08 57.2156 36.4133 57.2156 32.1999C57.2156 27.9866 57.8556 24.3066 59.1356 21.1599C60.4423 18.0133 62.3756 15.5733 64.9356 13.84C67.4956 12.1066 70.709 11.2666 74.5756 11.3199C78.4156 11.3199 81.5756 12.3466 84.0556 14.4C86.5356 16.4266 88.3223 19.1466 89.4156 22.5599L99.2556 21C99.0921 20.337 98.9119 19.6905 98.7149 19.0607C97.1449 14.0412 94.5118 10.0743 90.8156 7.15995C86.6823 3.85328 81.069 2.19995 73.9756 2.19995C68.8556 2.19995 64.2556 3.39995 60.1756 5.79995C56.0956 8.17328 52.8823 11.6 50.5356 16.08C48.189 20.5333 47.0156 25.9066 47.0156 32.1999C47.0156 37 47.709 41.2666 49.0956 45C50.4823 48.7066 52.4023 51.84 54.8556 54.4C57.3356 56.96 60.2023 58.9066 63.4556 60.24C66.7356 61.5466 70.2423 62.2 73.9756 62.2C79.549 62.2 84.3356 61 88.3356 58.6C92.3356 56.2 95.4023 52.8933 97.5356 48.68ZM104.409 63V15.8H116.929V19.2634C117.323 18.9542 117.735 18.6661 118.164 18.3995C119.386 17.5797 120.721 16.9459 122.161 16.4948C123.619 16.0198 125.111 15.7358 126.632 15.6446C128.139 15.5278 129.616 15.5868 131.058 15.8272L132.729 16.1057V28.8494C133.027 28.1037 133.36 27.3788 133.728 26.6749C135.704 22.8694 138.477 19.8805 142.039 17.7612C145.613 15.6342 149.709 14.6 154.261 14.6C159.059 14.6 163.265 15.7312 166.772 18.097C170.286 20.4217 172.863 23.7054 174.519 27.8594C176.176 32.0174 176.766 36.8263 176.376 42.2239L176.242 44.08H145.471C145.886 45.8292 146.553 47.2233 147.423 48.3106C148.887 50.141 151.056 51.16 154.261 51.16C156.335 51.16 157.998 50.7089 159.336 49.8949C160.707 49.0506 161.787 47.8299 162.569 46.1542L163.302 44.5839L175.741 48.3471C175.822 46.3547 176.205 44.4955 176.918 42.7922C177.738 40.8079 179 39.1093 180.676 37.7106C182.354 36.2834 184.46 35.1763 186.926 34.3448L186.938 34.3407L186.95 34.3368C187.531 34.1491 188.141 33.968 188.778 33.7933L176.816 30.0415L177.365 28.1594C178.551 24.0978 180.828 20.7929 184.174 18.3131L184.181 18.308C187.643 15.7656 192.157 14.6 197.525 14.6C201.579 14.6 205.231 15.2614 208.434 16.6421C211.799 18.0809 214.327 20.4672 215.952 23.7419C216.394 24.611 216.75 25.4983 217.019 26.4024V15.8H224.859V3.79995H238.459V15.8H251.139V27.36H238.459V42.8C238.459 44.5143 238.472 46.0131 238.498 47.2979C238.544 48.3667 238.769 49.0658 239.044 49.5148L239.049 49.5229L239.054 49.531C239.637 50.5031 240.548 51.1089 242.115 51.2478C244.028 51.4172 246.265 51.3248 248.845 50.9417L251.139 50.601V62.6608L249.506 62.9659C246.524 63.5234 243.584 63.763 240.69 63.6794C237.754 63.6208 235.055 63.0859 232.625 62.0359L232.616 62.0318L232.606 62.0276C230.05 60.8912 228.076 59.0811 226.743 56.6377L226.737 56.6262L226.731 56.6146C225.613 54.4996 225.002 52.2938 224.94 50.0147C224.886 48.0459 224.859 45.8271 224.859 43.36V27.36H217.269C217.4 27.9399 217.496 28.5264 217.555 29.1193C217.723 30.7701 217.805 32.558 217.805 34.4799V63H205.365V60.1163C204.582 60.7454 203.762 61.3022 202.904 61.7841L202.898 61.7874C199.934 63.4371 196.335 64.2 192.205 64.2C188.839 64.2 185.852 63.5671 183.33 62.1974L183.322 62.1929L183.314 62.1883C180.862 60.8263 178.943 58.9881 177.626 56.6672L177.621 56.6582L177.616 56.6492C176.572 54.766 175.965 52.7306 175.783 50.5652L175.742 50.6617C173.935 54.9182 171.109 58.2703 167.282 60.6557C163.516 63.0195 159.347 64.2 154.821 64.2C150.152 64.2 145.959 63.1864 142.307 61.0956C138.681 59.0194 135.835 56.1271 133.793 52.4512L133.787 52.4406C131.764 48.7466 130.781 44.5409 130.781 39.88C130.781 36.051 131.348 32.5492 132.516 29.4043L130.169 28.7199C129.175 28.43 127.948 28.3148 126.449 28.4336C125.082 28.5439 123.89 28.924 122.838 29.5549L122.8 29.5782L122.76 29.5998C121.662 30.1925 120.796 30.9282 120.129 31.8002C119.462 32.7071 118.954 33.7585 118.616 34.9752L118.614 34.9846C118.27 36.2001 118.089 37.5481 118.089 39.04V63H104.409ZM118.529 30.6C119.383 29.48 120.476 28.5599 121.809 27.8399C123.143 27.0399 124.636 26.5733 126.289 26.44C127.156 26.3712 127.969 26.3698 128.729 26.4358C129.443 26.4978 130.11 26.6192 130.729 26.8V17.8C129.449 17.5866 128.129 17.5333 126.769 17.6399C125.409 17.7199 124.076 17.9733 122.769 18.4C121.489 18.7999 120.316 19.3599 119.249 20.08C118.396 20.6067 117.622 21.2325 116.929 21.9573C116.605 22.2965 116.298 22.6574 116.009 23.0399C115.614 23.5665 115.254 24.1199 114.929 24.7001V17.8H106.409V61H116.089V39.04C116.089 37.3866 116.289 35.8533 116.689 34.4399C116.725 34.312 116.762 34.1854 116.801 34.06C116.842 33.9281 116.885 33.7975 116.929 33.6684C117.32 32.5386 117.853 31.5158 118.529 30.6ZM166.221 58.96C169.126 57.15 171.394 54.7316 173.026 51.7047C173.342 51.1192 173.633 50.511 173.901 49.88L164.381 47C163.448 49 162.115 50.5333 160.381 51.6C158.675 52.64 156.635 53.16 154.261 53.16C150.581 53.16 147.781 51.96 145.861 49.56C144.692 48.0989 143.879 46.2723 143.422 44.08C143.289 43.4441 143.187 42.7774 143.114 42.08H174.381C174.755 36.9066 174.181 32.4133 172.661 28.6C171.141 24.7866 168.808 21.8399 165.661 19.76C162.541 17.6533 158.741 16.6 154.261 16.6C150.021 16.6 146.288 17.5599 143.061 19.4799C139.835 21.4 137.315 24.1066 135.501 27.6C133.688 31.0666 132.781 35.16 132.781 39.88C132.781 44.2533 133.701 48.12 135.541 51.48C137.408 54.84 139.995 57.4666 143.301 59.36C146.608 61.2533 150.448 62.2 154.821 62.2C158.981 62.2 162.781 61.12 166.221 58.96ZM143.818 32.7999C143.63 33.4294 143.474 34.096 143.35 34.7999H164.597C164.509 34.0929 164.396 33.4262 164.258 32.7999C163.845 30.9352 163.206 29.4285 162.341 28.28C160.715 26.12 158.155 25.0399 154.661 25.0399C150.715 25.0399 147.781 26.2666 145.861 28.7199C144.976 29.839 144.295 31.199 143.818 32.7999ZM162.203 32.7999C161.844 31.3702 161.343 30.2795 160.744 29.4831C159.601 27.9662 157.727 27.0399 154.661 27.0399C151.15 27.0399 148.879 28.1095 147.436 29.9526L147.43 29.9609C146.824 30.7264 146.314 31.6663 145.919 32.7999H162.203ZM205.365 57.4474C206.062 56.7696 206.729 56.0161 207.365 55.1867V61H215.805V34.4799C215.805 32.6133 215.725 30.8933 215.565 29.32C215.405 27.7199 214.938 26.1599 214.165 24.64C212.752 21.7866 210.578 19.7333 207.645 18.4799C204.738 17.2266 201.365 16.6 197.525 16.6C192.432 16.6 188.378 17.7066 185.365 19.92C182.912 21.7381 181.106 24.0421 179.948 26.8319C179.791 27.2116 179.645 27.6003 179.511 27.998C179.432 28.2354 179.356 28.4761 179.285 28.7199L188.085 31.48C188.805 29.2666 190.072 27.7066 191.885 26.8C193.698 25.8933 195.578 25.44 197.525 25.44C200.752 25.44 203.045 26.1466 204.405 27.5599C205.181 28.3665 205.731 29.4293 206.056 30.7482C206.148 31.1218 206.222 31.516 206.277 31.9308C206.312 32.1876 206.339 32.4524 206.36 32.725C206.122 32.7606 205.884 32.796 205.648 32.8312C205.221 32.8948 204.797 32.9577 204.376 33.0201C203.316 33.1771 202.272 33.3304 201.245 33.4799C198.525 33.8533 195.992 34.2666 193.645 34.72C191.325 35.1733 189.298 35.68 187.565 36.24C185.272 37.0133 183.405 38.0133 181.965 39.24C180.525 40.44 179.458 41.88 178.765 43.56C178.072 45.2133 177.725 47.08 177.725 49.16C177.725 51.5333 178.272 53.7066 179.365 55.68C180.485 57.6533 182.125 59.24 184.285 60.44C186.445 61.6133 189.085 62.2 192.205 62.2C196.098 62.2 199.338 61.48 201.925 60.04C203.144 59.3557 204.291 58.4915 205.365 57.4474ZM205.531 46.6969C205.883 45.6356 206.081 44.4567 206.125 43.16C206.133 42.9921 206.141 42.8275 206.149 42.6664C206.171 42.2007 206.189 41.7632 206.203 41.354C206.212 41.1016 206.219 40.8599 206.225 40.629C206.091 40.6504 205.957 40.6717 205.825 40.6928C205.269 40.7815 204.732 40.8677 204.215 40.9514C203.328 41.0949 202.498 41.2311 201.725 41.36C199.645 41.7066 197.858 42.04 196.365 42.36C194.872 42.6533 193.552 42.9866 192.405 43.36C191.285 43.76 190.338 44.2266 189.565 44.76C188.792 45.2933 188.192 45.9066 187.765 46.6C187.365 47.2933 187.165 48.1066 187.165 49.04C187.165 50.1066 187.432 51.0533 187.965 51.88C188.498 52.68 189.272 53.32 190.285 53.8C191.325 54.28 192.605 54.52 194.125 54.52C196.312 54.52 198.178 54.1333 199.725 53.36C201.272 52.5866 202.498 51.64 203.405 50.52C204.338 49.4 204.965 48.3466 205.285 47.36C205.312 47.2938 205.339 47.2271 205.365 47.16C205.424 47.0082 205.479 46.8538 205.531 46.6969ZM191.132 51.9881C191.837 52.3117 192.81 52.52 194.125 52.52C196.081 52.52 197.625 52.1738 198.831 51.5711C200.172 50.9003 201.156 50.1198 201.851 49.2616L201.859 49.2505L201.869 49.2396C202.7 48.2418 203.166 47.4103 203.383 46.7429L203.407 46.6686L203.436 46.5964C203.837 45.6278 204.079 44.47 204.126 43.0922L204.127 43.0761L204.128 43.0601C204.129 43.037 204.13 43.0141 204.131 42.9911C203.397 43.1103 202.705 43.2242 202.054 43.3327C199.994 43.6761 198.239 44.0039 196.784 44.3156L196.767 44.3191L196.751 44.3224C195.329 44.6017 194.099 44.9134 193.051 45.2529C192.067 45.6066 191.293 45.9976 190.7 46.4064C190.132 46.7981 189.744 47.2086 189.484 47.6229C189.294 47.9625 189.165 48.4133 189.165 49.04C189.165 49.7494 189.335 50.3095 189.637 50.783C189.937 51.2278 190.403 51.6413 191.132 51.9881ZM200.965 31.4997C201.982 31.3515 203.016 31.1996 204.067 31.0441C203.808 30.0956 203.419 29.4193 202.964 28.9467C202.163 28.1145 200.543 27.44 197.525 27.44C195.902 27.44 194.327 27.8151 192.779 28.5888C191.517 29.22 190.568 30.3125 189.987 32.0986L189.498 33.6018C190.665 33.3004 191.921 33.0191 193.261 32.7571L193.266 32.7563C195.65 32.2956 198.217 31.8769 200.965 31.4997ZM226.859 25.36V43.36C226.859 45.8133 226.885 48.0133 226.939 49.96C226.992 51.9066 227.512 53.8133 228.499 55.68C229.619 57.7333 231.259 59.24 233.419 60.2C235.579 61.1333 238.019 61.6266 240.739 61.68C243.485 61.76 246.285 61.5333 249.139 61V52.92C248.453 53.0218 247.786 53.1046 247.139 53.1684C245.242 53.3553 243.509 53.3791 241.939 53.24C239.832 53.0533 238.299 52.16 237.339 50.56C236.832 49.7333 236.552 48.6666 236.499 47.36C236.472 46.0533 236.459 44.5333 236.459 42.8V25.36H249.139V17.8H236.459V5.79995H226.859V17.8H219.019V25.36H226.859ZM278.162 60.1471L278.154 60.1422C273.713 57.4027 270.301 53.5921 267.929 48.7616L267.924 48.753C265.583 43.9279 264.444 38.393 264.444 32.1999C264.444 26.0069 265.583 20.472 267.924 15.6469L267.929 15.6383C270.301 10.8083 273.713 7.00976 278.156 4.29645C282.634 1.53448 287.946 0.199951 294.004 0.199951C300.989 0.199951 306.969 1.95914 311.807 5.60226C316.588 9.17607 319.927 14.0012 321.83 19.9947L322.459 21.9756L308.846 25.7288L308.287 23.8509C307.267 20.4279 305.571 17.8698 303.252 16.0553L303.242 16.0478C300.983 14.2582 297.961 13.28 294.004 13.28C290.439 13.28 287.626 14.076 285.441 15.5389C283.241 17.03 281.545 19.1422 280.373 21.9619C279.212 24.7922 278.59 28.1924 278.564 32.2077C278.565 36.215 279.173 39.6233 280.333 42.4769C281.501 45.2632 283.207 47.364 285.437 48.8585C287.623 50.323 290.437 51.12 294.004 51.12C297.961 51.12 300.983 50.1417 303.242 48.3522C305.572 46.5064 307.269 43.9411 308.288 40.5453L308.85 38.6721L322.03 42.306C321.947 41.3575 321.906 40.3887 321.906 39.3999C321.906 34.5961 322.869 30.2901 324.86 26.5416C326.84 22.815 329.613 19.8741 333.164 17.7612C336.738 15.6342 340.834 14.6 345.386 14.6C350.04 14.6 354.196 15.6454 357.779 17.8075C361.331 19.95 364.09 22.9211 366.041 26.6781C367.997 30.418 368.946 34.6765 368.946 39.3999C368.946 44.1552 367.982 48.4441 365.995 52.2126C364.043 55.9402 361.285 58.8932 357.739 61.0324L357.729 61.0387C354.149 63.1691 350.011 64.2 345.386 64.2C340.756 64.2 336.615 63.1534 333.033 60.9924C329.486 58.8523 326.727 55.8975 324.774 52.1674L324.77 52.1592L324.766 52.1509C323.402 49.4851 322.535 46.5657 322.146 43.4108L321.83 44.4052C319.926 50.4003 316.587 55.2378 311.807 58.8376L311.801 58.8423C306.963 62.4559 300.986 64.2 294.004 64.2C287.949 64.2 282.639 62.88 278.162 60.1471ZM364.226 51.28C366.04 47.84 366.946 43.8799 366.946 39.3999C366.946 34.9466 366.053 31.0133 364.266 27.6C362.48 24.16 359.973 21.4666 356.746 19.5199C353.52 17.5733 349.733 16.6 345.386 16.6C341.146 16.6 337.413 17.5599 334.186 19.4799C330.96 21.4 328.44 24.0666 326.626 27.4799C324.813 30.8933 323.906 34.8666 323.906 39.3999C323.906 43.8533 324.786 47.7999 326.546 51.24C328.333 54.6533 330.84 57.3333 334.066 59.28C337.293 61.2266 341.066 62.2 345.386 62.2C349.706 62.2 353.48 61.24 356.706 59.32C359.933 57.3733 362.44 54.6933 364.226 51.28ZM278.484 43.24C277.204 40.0933 276.564 36.4133 276.564 32.1999C276.59 27.9866 277.244 24.32 278.524 21.1999C279.83 18.0533 281.764 15.6133 284.324 13.8799C286.91 12.1466 290.137 11.28 294.004 11.28C298.297 11.28 301.79 12.3466 304.484 14.4799C307.177 16.5866 309.084 19.5199 310.204 23.28L319.924 20.6C319.719 19.9544 319.496 19.3242 319.257 18.7092C317.407 13.9637 314.523 10.1273 310.604 7.19995C306.177 3.86662 300.644 2.19995 294.004 2.19995C288.244 2.19995 283.31 3.46662 279.204 5.99995C275.097 8.50662 271.937 12.0133 269.724 16.5199C267.537 21.0266 266.444 26.2533 266.444 32.1999C266.444 38.1466 267.537 43.3733 269.724 47.88C271.937 52.3866 275.097 55.9066 279.204 58.44C283.31 60.9466 288.244 62.2 294.004 62.2C300.644 62.2 306.177 60.5466 310.604 57.24C314.523 54.2889 317.407 50.4392 319.257 45.6907C319.497 45.0756 319.719 44.4453 319.924 43.8L310.204 41.12C309.084 44.8533 307.177 47.7866 304.484 49.92C301.79 52.0533 298.297 53.12 294.004 53.12C290.137 53.12 286.91 52.2533 284.324 50.52C281.737 48.7866 279.79 46.36 278.484 43.24ZM352.317 30.6136L352.31 30.6054C350.874 28.7041 348.69 27.64 345.386 27.64C343.101 27.64 341.397 28.1558 340.131 29.0396L340.126 29.0434C338.837 29.9371 337.845 31.2104 337.173 32.9579L337.17 32.966C336.478 34.7407 336.106 36.8721 336.106 39.3999C336.106 43.2893 336.983 46.1655 338.535 48.2248C340.005 50.1178 342.177 51.16 345.386 51.16C348.74 51.16 350.922 50.0733 352.33 48.1416C353.885 46.0087 354.746 43.1485 354.746 39.3999C354.746 35.503 353.866 32.6427 352.317 30.6136ZM336.946 49.44C335.053 46.9333 334.106 43.5866 334.106 39.3999C334.106 36.68 334.506 34.2933 335.306 32.24C336.106 30.16 337.333 28.5466 338.986 27.4C340.666 26.2266 342.8 25.64 345.386 25.64C349.173 25.64 352.013 26.8933 353.906 29.4C355.8 31.8799 356.746 35.2133 356.746 39.3999C356.746 43.4533 355.813 46.76 353.946 49.32C352.08 51.88 349.226 53.16 345.386 53.16C341.68 53.16 338.866 51.92 336.946 49.44ZM371.594 26.8595L371.597 26.8536C373.397 23.1081 375.964 20.1156 379.297 17.931C382.678 15.688 386.62 14.6 391.039 14.6C394.278 14.6 397.214 15.1777 399.799 16.3798V1.39995H413.519V63H400.999V61.7369C398.038 63.4042 394.572 64.2 390.679 64.2C386.354 64.2 382.487 63.1053 379.16 60.8571C375.883 58.6431 373.361 55.6373 371.591 51.8949C369.822 48.1536 368.959 43.9755 368.959 39.3999C368.959 34.7754 369.821 30.5807 371.594 26.8595ZM400.999 59.3915C401.093 59.3287 401.187 59.2649 401.279 59.2C401.884 58.7758 402.458 58.3193 402.999 57.8304V61H411.519V3.39995H401.799V19.9203C401.655 19.8114 401.508 19.7047 401.359 19.6C400.861 19.2405 400.341 18.9133 399.799 18.6185C397.328 17.2728 394.408 16.6 391.039 16.6C386.959 16.6 383.413 17.6 380.399 19.6C377.386 21.5733 375.053 24.28 373.399 27.72C371.773 31.1333 370.959 35.0266 370.959 39.3999C370.959 43.72 371.773 47.6 373.399 51.04C375.026 54.48 377.319 57.2 380.279 59.2C383.239 61.2 386.706 62.2 390.679 62.2C394.756 62.2 398.196 61.2638 400.999 59.3915ZM399.799 28.2704C399.399 27.8141 398.959 27.4039 398.479 27.0399C396.933 25.8399 394.933 25.24 392.479 25.24C389.893 25.24 387.759 25.8799 386.079 27.16C384.399 28.4133 383.159 30.12 382.359 32.28C381.559 34.4133 381.159 36.7866 381.159 39.3999C381.159 42.04 381.546 44.44 382.319 46.6C383.119 48.7333 384.333 50.4266 385.959 51.68C387.586 52.9333 389.653 53.56 392.159 53.56C394.746 53.56 396.826 52.9733 398.399 51.8C399.459 51.0052 400.326 50.0058 400.999 48.8016C401.343 48.1876 401.636 47.5204 401.879 46.8C402.626 44.6666 402.999 42.1999 402.999 39.3999C402.999 36.872 402.701 34.632 402.104 32.68C402.033 32.4493 401.958 32.2226 401.879 32C401.853 31.9226 401.827 31.8458 401.799 31.7697C401.664 31.3908 401.515 31.0275 401.353 30.68C400.927 29.7694 400.41 28.9662 399.799 28.2704ZM399.799 32.1308V32.68H399.998C400.649 34.5215 400.999 36.7491 400.999 39.3999C400.999 42.0266 400.649 44.2621 399.992 46.1393L399.988 46.1498L399.984 46.1604C399.377 47.9607 398.436 49.2724 397.199 50.2C396.067 51.0426 394.449 51.56 392.159 51.56C389.994 51.56 388.385 51.0242 387.18 50.0957C385.884 49.0969 384.881 47.7287 384.197 45.9123C383.515 44.0018 383.159 41.8385 383.159 39.3999C383.159 36.9916 383.528 34.8605 384.232 32.9822L384.235 32.9746C384.915 31.1394 385.935 29.7628 387.275 28.763L387.283 28.7569L387.291 28.7508C388.551 27.7914 390.23 27.24 392.479 27.24C394.603 27.24 396.138 27.755 397.253 28.6201L397.262 28.6268L397.271 28.6333C398.336 29.4419 399.192 30.5783 399.799 32.1308ZM418.946 52.4512L418.94 52.4406C416.917 48.7466 415.934 44.5409 415.934 39.88C415.934 34.904 416.891 30.4806 418.881 26.6749C420.857 22.8694 423.63 19.8805 427.192 17.7612C430.766 15.6342 434.862 14.6 439.414 14.6C444.212 14.6 448.418 15.7312 451.926 18.097C455.439 20.4217 458.016 23.7054 459.672 27.8594C461.33 32.0174 461.919 36.8263 461.529 42.2239L461.395 44.08H430.624C431.039 45.8292 431.706 47.2233 432.576 48.3106C434.04 50.141 436.209 51.16 439.414 51.16C441.488 51.16 443.152 50.7086 444.49 49.8941C445.86 49.0499 446.94 47.8294 447.722 46.1542L448.455 44.5839L461.766 48.6108L460.895 50.6617C459.088 54.9182 456.262 58.2703 452.435 60.6557C448.669 63.0195 444.5 64.2 439.974 64.2C435.305 64.2 431.112 63.1864 427.461 61.0956C423.835 59.0194 420.988 56.1271 418.946 52.4512ZM451.374 58.96C454.279 57.15 456.547 54.7316 458.179 51.7047C458.495 51.1192 458.786 50.511 459.054 49.88L449.534 47C448.601 49 447.268 50.5333 445.534 51.6C443.828 52.64 441.788 53.16 439.414 53.16C435.734 53.16 432.934 51.96 431.014 49.56C429.846 48.0989 429.032 46.2723 428.575 44.08C428.443 43.4441 428.34 42.7774 428.267 42.08H459.534C459.908 36.9066 459.334 32.4133 457.814 28.6C456.294 24.7866 453.961 21.8399 450.814 19.76C447.694 17.6533 443.894 16.6 439.414 16.6C435.174 16.6 431.441 17.5599 428.214 19.4799C424.988 21.4 422.468 24.1066 420.654 27.6C418.841 31.0666 417.934 35.16 417.934 39.88C417.934 44.2533 418.854 48.12 420.694 51.48C422.561 54.84 425.148 57.4666 428.454 59.36C431.761 61.2533 435.601 62.2 439.974 62.2C444.134 62.2 447.934 61.12 451.374 58.96ZM428.971 32.7999C428.783 33.4294 428.627 34.096 428.503 34.7999H449.75C449.662 34.0929 449.549 33.4262 449.411 32.7999C448.998 30.9352 448.359 29.4285 447.494 28.28C445.868 26.12 443.308 25.0399 439.814 25.0399C435.868 25.0399 432.934 26.2666 431.014 28.7199C430.129 29.839 429.448 31.199 428.971 32.7999ZM447.356 32.7999C446.997 31.3702 446.496 30.2795 445.897 29.4831C444.754 27.9662 442.881 27.0399 439.814 27.0399C436.303 27.0399 434.032 28.1095 432.589 29.9526L432.583 29.9609C431.977 30.7264 431.467 31.6663 431.072 32.7999H447.356ZM479.083 1.39995H492.903L476.476 63H462.656L479.083 1.39995ZM480.619 3.39995H490.299L474.939 61H465.259L480.619 3.39995ZM513.227 57.8269L504.419 49.0188L518.037 35.7999L504.419 22.5812L513.227 13.773L535.3 35.7999L513.227 57.8269ZM520.909 35.7999L507.269 49.04L513.229 55L532.469 35.7999L513.229 16.6L507.269 22.5594L520.909 35.7999Z" fill="#8257E5"/>
</g>
<defs>
<filter id="filter0_d_4429_2" x="0.371582" y="0.199951" width="538.928" height="72" filterUnits="userSpaceOnUse" color-interpolation-filters="sRGB">
<feFlood flood-opacity="0" result="BackgroundImageFix"/>
<feColorMatrix in="SourceAlpha" type="matrix" values="0 0 0 0 0 0 0 0 0 0 0 0 0 0 0 0 0 0 127 0" result="hardAlpha"/>
<feOffset dy="4"/>
<feGaussianBlur stdDeviation="2"/>
<feComposite in2="hardAlpha" operator="out"/>
<feColorMatrix type="matrix" values="0 0 0 0 0 0 0 0 0 0 0 0 0 0 0 0 0 0 0.25 0"/>
<feBlend mode="normal" in2="BackgroundImageFix" result="effect1_dropShadow_4429_2"/>
<feBlend mode="normal" in="SourceGraphic" in2="effect1_dropShadow_4429_2" result="shape"/>
</filter>
</defs>
</svg>
